<svg xmlns="http://www.w3.org/2000/svg" xmlns:xlink="http://www.w3.org/1999/xlink" id="Ebene_1" x="0px" y="0px" viewBox="0 0 1857.6 350.1" style="enable-background:new 0 0 1857.6 350.1;" xml:space="preserve"><style type="text/css">	.st0{fill:#0D1834;}	.st1{fill:#EB6129;}	.st2{fill:#FF916B;}	.st3{fill:#FFFFFF;}</style><g>	<g>		<path class="st0" d="M432.1,136.3c6.7-3.4,14.6-5.1,23.7-5.1c7.9,0,14.8,1.2,20.8,3.7c6,2.4,10.9,5.9,14.7,10.3   c3.8,4.4,6.2,9.8,7.4,16h20.7c-1-9.6-4.4-18.1-10-25.3c-5.6-7.3-13-12.9-22.2-17c-9.1-4-19.5-6.1-31.3-6.1   c-13.1,0-24.5,2.5-34.4,7.6c-9.9,5.1-17.5,12.2-23,21.2c-5.5,9.1-8.2,19.6-8.2,31.6c0,12,2.7,22.6,8.2,31.6   c5.5,9.1,13.2,16.2,23,21.2c9.8,5.1,21.3,7.6,34.4,7.6c11.7,0,22.1-2,31.3-6.1c9.1-4,16.5-9.7,22.2-17c5.6-7.3,9-15.7,10-25.3   h-20.7c-1.1,6.2-3.6,11.6-7.4,16.1c-3.8,4.5-8.7,7.9-14.7,10.3c-6,2.4-13,3.6-20.8,3.6c-9.1,0-17-1.7-23.7-5.1   c-6.7-3.4-11.8-8.3-15.5-14.6c-3.6-6.3-5.4-13.8-5.4-22.4c0-8.6,1.8-16.1,5.4-22.4C420.2,144.6,425.4,139.7,432.1,136.3z"></path>		<path class="st0" d="M618,143.6l-2.3,21.8c-0.4-0.7-0.8-1.4-1.2-2.1c-4.6-6.9-10.3-12.3-16.9-16.1c-6.7-3.8-14.1-5.7-22.3-5.7   c-8.6,0-16.2,1.9-22.9,5.8c-6.6,3.9-11.8,9.3-15.6,16.2c-3.7,6.9-5.6,15-5.6,24.2c0,9.1,1.9,17.2,5.6,24.1   c3.7,6.9,8.9,12.4,15.6,16.3c6.6,3.9,14.3,5.8,22.9,5.8c8.2,0,15.6-1.9,22.3-5.7c6.7-3.8,12.3-9.2,16.9-16.2   c0.5-0.7,0.8-1.5,1.3-2.2l2.3,21.9h20.8l-4.7-44l4.7-44H618z M608.3,203.3c-3.7,4.5-7.9,8-12.7,10.6c-4.8,2.5-10,3.8-15.6,3.8   c-5.5,0-10.4-1.3-14.6-3.8c-4.2-2.5-7.6-6.1-10-10.6c-2.4-4.5-3.7-9.7-3.7-15.6c0-5.9,1.2-11.1,3.7-15.6c2.4-4.5,5.8-8,10-10.6   c4.3-2.5,9.1-3.8,14.6-3.8c5.6,0,10.8,1.3,15.6,3.8c4.8,2.5,9,6.1,12.7,10.6c3.7,4.5,6.6,9.7,8.8,15.6   C614.9,193.5,611.9,198.7,608.3,203.3z"></path>		<path class="st0" d="M735.6,183.7c-5-2.3-12-3.9-20.9-4.7l-22.2-2c-6.7-0.6-11.4-1.7-13.8-3.3c-2.5-1.6-3.7-3.5-3.7-5.8   c0-3.6,2-6.4,6.1-8.2c4.1-1.9,9.8-2.8,17-2.8c6.8,0,12.3,0.8,16.4,2.3c4.1,1.5,7.2,3.4,9.2,5.6c2,2.2,3.2,4.5,3.7,6.9h20.5   c-0.5-5.9-2.9-11.1-7.2-15.6c-4.3-4.5-10-8-17.1-10.6c-7.2-2.5-15.3-3.8-24.4-3.8c-8.8,0-16.5,1.1-23.2,3.2   c-6.6,2.1-11.8,5.2-15.5,9.3c-3.7,4-5.6,9.1-5.6,15.1c0,4.1,1.1,8.1,3.4,11.7c2.3,3.7,6.1,6.8,11.5,9.3c5.4,2.5,12.8,4.2,22.1,5.1   l17.3,1.5c7.9,0.7,13.2,1.8,16.1,3.3c2.8,1.5,4.3,3.6,4.3,6.4c0,4.2-2.1,7.2-6.4,9.3c-4.3,2-10.6,3-19,3c-5.8,0-11-0.7-15.5-2   c-4.5-1.3-8.1-3.3-10.9-5.8c-2.7-2.5-4.4-5.5-5.1-8.8h-20.5c0.3,6.3,2.6,11.9,6.8,16.7c4.2,4.8,10.1,8.6,17.8,11.2   c7.7,2.6,16.7,4,27.2,4c10.2,0,18.6-1.2,25.3-3.5c6.7-2.3,11.8-5.7,15.1-10c3.3-4.4,5-9.5,5-15.4c0-4.6-1-8.7-3.1-12.3   C744.2,189,740.6,186,735.6,183.7z"></path>		<path class="st0" d="M855.3,160.6c-3.1-6.2-7.5-10.9-13.3-14.2c-5.8-3.3-12.9-5-21.2-5c-7.5,0-14.2,1.7-20.2,5.2   c-6,3.5-10.9,8.4-14.8,14.9v-49.6h-20.2v119.7h20.2v-42.9c0-6.1,1.2-11.5,3.5-16c2.3-4.6,5.6-8.1,10-10.7c4.3-2.5,9.3-3.8,15-3.8   c8.3,0,14.6,2.4,18.9,7.1c4.3,4.7,6.5,11.7,6.5,20.9v45.4h20.2V183C859.9,174.2,858.4,166.8,855.3,160.6z"></path>	</g>	<g>		<polygon class="st1" points="923.7,231.6 944.2,231.6 944.2,184 1017.5,184 1017.5,166 944.2,166 944.2,133 1019.9,133    1019.9,115 923.7,115   "></polygon>		<path class="st1" d="M1126.3,143.6h-20.2v42.9c0,6.1-1.1,11.5-3.4,16.1c-2.3,4.6-5.5,8.2-9.6,10.6c-4.1,2.5-9,3.7-14.7,3.7   c-7.9,0-13.9-2.4-18.1-7.1c-4.2-4.7-6.3-11.6-6.3-20.8v-45.6h-20.2v48.7c0,8.6,1.5,16,4.5,22.2c3,6.2,7.3,11,13,14.3   c5.6,3.3,12.5,5,20.6,5c7.4,0,14-1.7,19.9-5.2c5.9-3.5,10.7-8.4,14.5-14.9c0.6-1,1.1-2.1,1.6-3.2l3.4,21.1h20.2l-5.1-28.6V143.6z"></path>		<path class="st1" d="M1179,161c4.7-2.4,10.1-3.6,16.3-3.6c7.8,0,14.4,1.9,19.9,5.6c5.5,3.7,9,8.9,10.4,15.6h20.4   c-1-7.4-3.9-13.8-8.6-19.4c-4.7-5.5-10.6-9.9-17.9-13c-7.3-3.1-15.3-4.7-24.3-4.7c-10.2,0-19.1,1.9-26.8,5.8   c-7.7,3.9-13.8,9.3-18.1,16.3c-4.4,6.9-6.5,15-6.5,24.1c0,9.1,2.2,17.2,6.5,24.1c4.4,6.9,10.4,12.4,18.1,16.3   c7.7,3.9,16.7,5.8,26.8,5.8c8.9,0,17-1.6,24.3-4.7c7.3-3.1,13.2-7.4,17.9-13c4.7-5.6,7.5-11.9,8.6-19.2h-20.4   c-1.4,6.3-4.8,11.4-10.3,15.2c-5.5,3.8-12.2,5.8-20.1,5.8c-6.2,0-11.7-1.2-16.3-3.7c-4.7-2.4-8.3-5.9-10.8-10.5   c-2.5-4.6-3.8-10-3.8-16.2c0-6.3,1.3-11.7,3.8-16.2C1170.7,166.9,1174.3,163.4,1179,161z"></path>		<path class="st1" d="M1337.8,146.4c-5.8-3.3-12.9-5-21.2-5c-7.5,0-14.2,1.7-20.2,5.2c-6,3.5-10.9,8.4-14.8,14.9c0,0,0,0,0,0v-49.6   h-20.2v119.7h20.2v-42.9l0,0c0-6.1,1.2-11.5,3.5-16c2.3-4.6,5.6-8.1,9.9-10.7c4.3-2.5,9.3-3.8,15-3.8c8.3,0,14.6,2.4,18.9,7.1   c4.3,4.7,6.5,11.7,6.5,20.9v45.4h20.2V183c0-8.7-1.5-16.1-4.6-22.3C1348,154.5,1343.6,149.7,1337.8,146.4z"></path>		<path class="st1" d="M1453.2,183.7c-5-2.3-12-3.9-20.9-4.7l-22.2-2c-6.7-0.6-11.3-1.7-13.8-3.3c-2.5-1.6-3.7-3.5-3.7-5.8   c0-3.6,2.1-6.4,6.1-8.2c4.1-1.9,9.8-2.8,17-2.8c6.8,0,12.3,0.8,16.4,2.3c4.1,1.5,7.2,3.4,9.2,5.6c2,2.2,3.2,4.5,3.7,6.9h20.5   c-0.5-5.9-2.9-11.1-7.2-15.6c-4.3-4.5-10-8-17.1-10.6c-7.2-2.5-15.3-3.8-24.4-3.8c-8.8,0-16.5,1.1-23.2,3.2   c-6.6,2.1-11.8,5.2-15.6,9.3c-3.7,4-5.6,9.1-5.6,15.1c0,4.1,1.1,8.1,3.4,11.7c2.3,3.7,6.1,6.8,11.5,9.3c5.4,2.5,12.8,4.2,22.1,5.1   l17.3,1.5c7.9,0.7,13.2,1.8,16.1,3.3c2.8,1.5,4.3,3.6,4.3,6.4c0,4.2-2.1,7.2-6.4,9.3c-4.3,2-10.6,3-19,3c-5.8,0-11-0.7-15.5-2   c-4.5-1.3-8.1-3.3-10.9-5.8c-2.7-2.5-4.4-5.5-5.1-8.8h-20.5c0.3,6.3,2.6,11.9,6.8,16.7c4.2,4.8,10.1,8.6,17.8,11.2   c7.7,2.6,16.7,4,27.2,4c10.2,0,18.6-1.2,25.3-3.5c6.7-2.3,11.8-5.7,15.1-10c3.3-4.4,5-9.5,5-15.4c0-4.6-1-8.7-3.1-12.3   C1461.8,189,1458.3,186,1453.2,183.7z"></path>		<path class="st1" d="M1583.3,197.7c10.7-6.3,19.1-12,25.4-17c6.3-5,10.8-10,13.5-14.9c2.7-4.9,4.1-10.2,4.1-15.9   c0-7.4-2.1-13.8-6.3-19.4c-4.2-5.6-10.1-10-17.6-13.1c-7.5-3.1-16.3-4.7-26.2-4.7c-10.5,0-19.8,1.7-28,5.2   c-8.2,3.5-14.7,8.4-19.7,14.7c-4.9,6.3-7.7,13.8-8.3,22.4h20.7c0.5-4.7,2-8.9,4.4-12.8c2.4-3.9,6.1-7,11.1-9.2   c5-2.3,11.3-3.4,19.1-3.4c6.8,0,12.5,0.9,16.9,2.8c4.4,1.9,7.7,4.4,9.9,7.6c2.2,3.2,3.3,6.8,3.3,10.9c0,3.8-1.1,7.5-3.3,10.9   c-2.2,3.4-5.8,7.1-10.8,11c-5,3.9-11.9,8.5-20.6,13.8l-49.6,30.2v14.9H1630v-17.1h-75.1L1583.3,197.7z"></path>		<path class="st1" d="M1735.8,197.3v-83.4H1710l-80,85.8v14.8l85-0.5l0,17.7h20.8v-17.8l21-0.1v-16.5L1735.8,197.3z M1653.5,197.9   l61.5-65.7l0,65.3L1653.5,197.9z"></path>	</g></g><g>	<path class="st1" d="M310.4,46.4c-0.1-0.2-0.1-0.3-0.2-0.4c0,0-48.3,21.5-64.4,68.6h-35h-35C159.8,67.5,111.5,46,111.5,46  c-0.1,0.1-0.1,0.2-0.2,0.4c-8.5,22.7,29.6,39.5,29.6,65.7c0,18.4-5.7,35.7-15.4,49.8c25.1,20.7,66.9,65.7,74.5,141.3  c3.4,1.1,7,1.9,10.8,1.9s7.4-0.8,10.8-1.9c7.6-75.6,49.4-120.6,74.5-141.3c-9.7-14.1-15.4-31.3-15.4-49.8  C280.8,85.9,319,69.1,310.4,46.4z"></path>	<g>		<path class="st2" d="M200.1,303.2c-8-3-15-8.8-17.8-17.1c-0.6-1.7-1.9-6.3-1.9-6.3c-2.1-6.5-4.7-12.5-8.2-18.4   c-6.7-12.2-16-22.6-26.8-31.2c-1.1-0.8-2.3-1.5-3.4-2.3c-1.1-1-2.3-1.7-3.6-2.5c-9.1-6.3-19.4-10.8-30.4-13.5   c-0.2-0.4-0.2-1-0.2-1.3c-0.2-0.4-0.2-1-0.2-1.3c-0.2-1.9-0.2-3.8-0.2-5.7c0-16.3,6.7-31.1,17.7-41.5c0.2-0.2,0.3-0.3,0.4-0.3   C150.3,181.5,192.3,225,200.1,303.2"></path>		<path class="st2" d="M141,112.1c0,18.4-5.7,35.7-15.4,49.8c-1.8-1.1-3-2.5-3-2.5c-9.7-10.3-39.7-48.8-11.2-113   C129.6,62.4,141,85.9,141,112.1"></path>		<path class="st2" d="M221.7,303.2c8-3,15-8.8,17.8-17.1c0.6-1.7,1.9-6.3,1.9-6.3c2.1-6.5,4.7-12.5,8.2-18.4   c6.7-12.2,16-22.6,26.8-31.2c1.1-0.8,2.3-1.5,3.4-2.3c1.1-1,2.3-1.7,3.6-2.5c9.1-6.3,19.4-10.8,30.4-13.5c0.2-0.4,0.2-1,0.2-1.3   c0.2-0.4,0.2-1,0.2-1.3c0.2-1.9,0.2-3.8,0.2-5.7c0-16.3-6.7-31.1-17.7-41.5c-0.2-0.2-0.3-0.3-0.4-0.3   C271.5,181.5,229.5,225,221.7,303.2"></path>		<path class="st2" d="M280.8,112.1c0,18.4,5.7,35.7,15.4,49.8c1.8-1.1,3-2.5,3-2.5c9.7-10.3,39.7-48.8,11.2-113   C292.2,62.4,280.8,85.9,280.8,112.1"></path>	</g></g></svg>